<?xml version="1.0" encoding="UTF-8"?>
<!DOCTYPE svg PUBLIC "-//W3C//DTD SVG 1.1//EN" "http://www.w3.org/Graphics/SVG/1.1/DTD/svg11.dtd">
<svg xmlns="http://www.w3.org/2000/svg" version="1.1" width="128px" height="128px" style="shape-rendering:geometricPrecision; text-rendering:geometricPrecision; image-rendering:optimizeQuality; fill-rule:evenodd; clip-rule:evenodd" xmlns:xlink="http://www.w3.org/1999/xlink">
<g><path style="opacity:0.936" fill="#feca66" d="M 77.5,51.5 C 75.847,51.6596 74.5137,52.3263 73.5,53.5C 73.1667,53.5 72.8333,53.5 72.5,53.5C 71.5489,52.0813 71.2155,50.4147 71.5,48.5C 76.5849,43.4903 76.4182,38.4903 71,33.5C 69.0283,34.3052 67.5283,35.6385 66.5,37.5C 67.9213,41.0278 68.588,44.6945 68.5,48.5C 68.7373,49.791 68.404,50.791 67.5,51.5C 66.713,49.8958 65.3797,49.2291 63.5,49.5C 63.1667,49.5 62.8333,49.5 62.5,49.5C 61.4973,42.3169 58.664,35.9835 54,30.5C 53.0124,27.5755 52.3457,24.5755 52,21.5C 51.2496,20.8742 50.4162,20.3742 49.5,20C 33.4681,20.0176 17.4681,20.851 1.5,22.5C 1.5,15.5 1.5,8.5 1.5,1.5C 17.496,2.64069 33.496,3.80736 49.5,5C 53.8771,5.18784 57.8771,6.52118 61.5,9C 67.7066,14.8755 74.2066,20.3755 81,25.5C 81.3603,30.9106 82.1936,36.2439 83.5,41.5C 83.423,43.299 82.923,44.9656 82,46.5C 80.2927,48.0375 78.7927,49.7041 77.5,51.5 Z M 71.5,48.5 C 70.5,48.5 69.5,48.5 68.5,48.5C 68.588,44.6945 67.9213,41.0278 66.5,37.5C 67.5283,35.6385 69.0283,34.3052 71,33.5C 76.4182,38.4903 76.5849,43.4903 71.5,48.5 Z"/></g>
<g><path style="opacity:0.823" fill="#e7735f" d="M 68.5,48.5 C 69.5,48.5 70.5,48.5 71.5,48.5C 71.2155,50.4147 71.5489,52.0813 72.5,53.5C 72.5,57.8333 72.5,62.1667 72.5,66.5C 70.8333,67.8333 69.1667,67.8333 67.5,66.5C 67.5,62.1667 67.5,57.8333 67.5,53.5C 67.5,52.8333 67.5,52.1667 67.5,51.5C 68.404,50.791 68.7373,49.791 68.5,48.5 Z"/></g>
<g><path style="opacity:1" fill="#f1e6d7" d="M 63.5,49.5 C 65.3797,49.2291 66.713,49.8958 67.5,51.5C 67.5,52.1667 67.5,52.8333 67.5,53.5C 67.1667,53.5 66.8333,53.5 66.5,53.5C 64.0882,53.3059 63.0882,51.9726 63.5,49.5 Z"/></g>
<g><path style="opacity:0.859" fill="#e9705e" d="M 62.5,49.5 C 62.8333,49.5 63.1667,49.5 63.5,49.5C 63.0882,51.9726 64.0882,53.3059 66.5,53.5C 64.0841,58.0006 61.4175,62.3339 58.5,66.5C 56.0672,66.7271 54.4006,65.7271 53.5,63.5C 56.9957,59.1813 59.9957,54.5146 62.5,49.5 Z"/></g>
<g><path style="opacity:0.86" fill="#e9715f" d="M 77.5,51.5 C 80.4143,55.658 83.0809,59.9914 85.5,64.5C 84.205,65.4884 82.8717,66.4884 81.5,67.5C 78.4057,63.0736 75.739,58.407 73.5,53.5C 74.5137,52.3263 75.847,51.6596 77.5,51.5 Z"/></g>
<g><path style="opacity:0.949" fill="#fec965" d="M 79.5,77.5 C 78.8413,74.5448 78.5079,71.5448 78.5,68.5C 79.391,67.8902 80.391,67.5569 81.5,67.5C 82.8717,66.4884 84.205,65.4884 85.5,64.5C 88.3371,61.8987 91.1705,61.8987 94,64.5C 103.428,76.3511 113.095,88.0178 123,99.5C 124.751,101.212 125.418,103.212 125,105.5C 118.887,114.806 110.387,119.139 99.5,118.5C 93.0586,104.619 86.392,90.9526 79.5,77.5 Z"/></g>
<g><path style="opacity:0.963" fill="#58b0e2" d="M 53.5,63.5 C 54.4006,65.7271 56.0672,66.7271 58.5,66.5C 58.9731,67.9063 59.9731,68.573 61.5,68.5C 61.4249,71.2062 61.0916,73.8728 60.5,76.5C 59.8333,76.5 59.5,76.8333 59.5,77.5C 59.5,78.1667 59.5,78.8333 59.5,79.5C 52.6515,92.5325 46.3182,105.866 40.5,119.5C 29.7323,119.533 21.2323,115.2 15,106.5C 14.3333,104.833 14.3333,103.167 15,101.5C 25.8333,88.6667 36.6667,75.8333 47.5,63C 49.5454,62.5099 51.5454,62.6765 53.5,63.5 Z"/></g>
<g><path style="opacity:0.977" fill="#82bb55" d="M 67.5,66.5 C 69.1667,67.8333 70.8333,67.8333 72.5,66.5C 74.8583,66.2525 76.8583,66.9192 78.5,68.5C 78.5079,71.5448 78.8413,74.5448 79.5,77.5C 81.2064,90.985 82.8731,104.485 84.5,118C 83.76,122.904 80.76,125.237 75.5,125C 68.1588,126.325 61.3255,125.159 55,121.5C 56.3297,107.523 57.8297,93.5233 59.5,79.5C 59.5,78.8333 59.5,78.1667 59.5,77.5C 60.1667,77.5 60.5,77.1667 60.5,76.5C 61.0916,73.8728 61.4249,71.2062 61.5,68.5C 63.1016,66.9261 65.1016,66.2594 67.5,66.5 Z"/></g>
</svg>
