<?xml version="1.0" encoding="UTF-8"?>
<!DOCTYPE svg PUBLIC "-//W3C//DTD SVG 1.1//EN" "http://www.w3.org/Graphics/SVG/1.1/DTD/svg11.dtd">
<svg xmlns="http://www.w3.org/2000/svg" version="1.1" width="595px" height="250px" style="shape-rendering:geometricPrecision; text-rendering:geometricPrecision; image-rendering:optimizeQuality; fill-rule:evenodd; clip-rule:evenodd" xmlns:xlink="http://www.w3.org/1999/xlink">
<g><path style="opacity:1" fill="#e0fbda" d="M 307.5,-0.5 C 381.833,-0.5 456.167,-0.5 530.5,-0.5C 551.66,0.497304 572.993,0.830637 594.5,0.5C 594.5,83.5 594.5,166.5 594.5,249.5C 526.167,249.5 457.833,249.5 389.5,249.5C 259.668,248.5 129.668,248.167 -0.5,248.5C -0.5,248.167 -0.5,247.833 -0.5,247.5C 2.19204,245.138 4.8587,242.804 7.5,240.5C 8.16667,240.5 8.5,240.167 8.5,239.5C 10.5248,237.804 12.5248,236.137 14.5,234.5C 15.1667,234.5 15.5,234.167 15.5,233.5C 17.8585,231.471 20.1918,229.471 22.5,227.5C 23.1667,227.5 23.5,227.167 23.5,226.5C 25.8585,224.471 28.1918,222.471 30.5,220.5C 31.1667,220.5 31.5,220.167 31.5,219.5C 33.5248,217.804 35.5248,216.137 37.5,214.5C 38.1667,214.5 38.5,214.167 38.5,213.5C 40.8585,211.471 43.1918,209.471 45.5,207.5C 46.1667,207.5 46.5,207.167 46.5,206.5C 48.8585,204.471 51.1918,202.471 53.5,200.5C 54.1667,200.5 54.5,200.167 54.5,199.5C 59.4863,195.845 64.153,191.845 68.5,187.5C 69.1667,187.5 69.5,187.167 69.5,186.5C 71.8585,184.471 74.1918,182.471 76.5,180.5C 77.1667,180.5 77.5,180.167 77.5,179.5C 82.4863,175.845 87.153,171.845 91.5,167.5C 92.1667,167.5 92.5,167.167 92.5,166.5C 94.8585,164.471 97.1918,162.471 99.5,160.5C 100.167,160.5 100.5,160.167 100.5,159.5C 102.858,157.471 105.192,155.471 107.5,153.5C 108.167,153.5 108.5,153.167 108.5,152.5C 110.54,150.823 112.54,149.156 114.5,147.5C 115.167,147.5 115.5,147.167 115.5,146.5C 117.858,144.471 120.192,142.471 122.5,140.5C 123.167,140.5 123.5,140.167 123.5,139.5C 125.858,137.471 128.192,135.471 130.5,133.5C 131.167,133.5 131.5,133.167 131.5,132.5C 133.525,130.804 135.525,129.137 137.5,127.5C 138.167,127.5 138.5,127.167 138.5,126.5C 140.858,124.471 143.192,122.471 145.5,120.5C 146.167,120.5 146.5,120.167 146.5,119.5C 148.858,117.471 151.192,115.471 153.5,113.5C 154.167,113.5 154.5,113.167 154.5,112.5C 156.525,110.804 158.525,109.137 160.5,107.5C 161.167,107.5 161.5,107.167 161.5,106.5C 163.858,104.471 166.192,102.471 168.5,100.5C 169.167,100.5 169.5,100.167 169.5,99.5C 171.858,97.4707 174.192,95.4707 176.5,93.5C 177.167,93.5 177.5,93.1667 177.5,92.5C 179.858,90.4707 182.192,88.4707 184.5,86.5C 185.167,86.5 185.5,86.1667 185.5,85.5C 187.54,83.823 189.54,82.1563 191.5,80.5C 192.167,80.5 192.5,80.1667 192.5,79.5C 194.858,77.4707 197.192,75.4707 199.5,73.5C 200.167,73.5 200.5,73.1667 200.5,72.5C 202.858,70.4707 205.192,68.4707 207.5,66.5C 208.167,66.5 208.5,66.1667 208.5,65.5C 210.54,63.823 212.54,62.1563 214.5,60.5C 215.167,60.5 215.5,60.1667 215.5,59.5C 217.858,57.4707 220.192,55.4707 222.5,53.5C 223.167,53.5 223.5,53.1667 223.5,52.5C 225.858,50.4707 228.192,48.4707 230.5,46.5C 231.167,46.5 231.5,46.1667 231.5,45.5C 233.525,43.8036 235.525,42.137 237.5,40.5C 238.167,40.5 238.5,40.1667 238.5,39.5C 240.858,37.4707 243.192,35.4707 245.5,33.5C 246.167,33.5 246.5,33.1667 246.5,32.5C 248.858,30.4707 251.192,28.4707 253.5,26.5C 254.167,26.5 254.5,26.1667 254.5,25.5C 256.525,23.8036 258.525,22.137 260.5,20.5C 261.167,20.5 261.5,20.1667 261.5,19.5C 262.167,19.5 262.5,19.1667 262.5,18.5C 265.205,16.4884 267.872,14.4884 270.5,12.5C 271.167,12.5 271.5,12.1667 271.5,11.5C 282.458,4.10041 294.458,0.100408 307.5,-0.5 Z"/></g>
<g><path style="opacity:1" fill="#efffe9" d="M 529.5,2.5 C 550.66,1.5027 571.993,1.16936 593.5,1.5C 593.5,83.8333 593.5,166.167 593.5,248.5C 525.833,248.667 458.166,248.5 390.5,248C 457.833,247.5 525.166,247.333 592.5,247.5C 592.5,165.833 592.5,84.1667 592.5,2.5C 571.5,2.5 550.5,2.5 529.5,2.5 Z"/></g>
<g><path style="opacity:0.005" fill="#f4f4f4" d="M 271.5,11.5 C 270.833,11.5 270.5,11.8333 270.5,12.5C 268.025,12.2533 268.025,11.5866 270.5,10.5C 271.107,10.6236 271.44,10.9569 271.5,11.5 Z"/></g>
<g><path style="opacity:0.008" fill="#d8d3ad" d="M 262.5,18.5 C 261.833,18.5 261.5,18.8333 261.5,19.5C 260.833,19.5 260.5,19.8333 260.5,20.5C 258.408,19.7145 258.741,18.7145 261.5,17.5C 262.107,17.6236 262.44,17.9569 262.5,18.5 Z"/></g>
<g><path style="opacity:0.012" fill="#caf5c1" d="M 254.5,25.5 C 253.833,25.5 253.5,25.8333 253.5,26.5C 251.025,26.2533 251.025,25.5866 253.5,24.5C 254.107,24.6236 254.44,24.9569 254.5,25.5 Z"/></g>
<g><path style="opacity:0.009" fill="#fefffe" d="M 246.5,32.5 C 245.833,32.5 245.5,32.8333 245.5,33.5C 243.025,33.2533 243.025,32.5866 245.5,31.5C 246.107,31.6236 246.44,31.9569 246.5,32.5 Z"/></g>
<g><path style="opacity:0.007" fill="#fefffe" d="M 238.5,39.5 C 237.833,39.5 237.5,39.8333 237.5,40.5C 235.025,40.2533 235.025,39.5866 237.5,38.5C 238.107,38.6236 238.44,38.9569 238.5,39.5 Z"/></g>
<g><path style="opacity:0.012" fill="#95df94" d="M 231.5,45.5 C 230.833,45.5 230.5,45.8333 230.5,46.5C 228.025,46.2533 228.025,45.5866 230.5,44.5C 231.107,44.6236 231.44,44.9569 231.5,45.5 Z"/></g>
<g><path style="opacity:0.009" fill="#fffee6" d="M 223.5,52.5 C 222.833,52.5 222.5,52.8333 222.5,53.5C 220.025,53.2533 220.025,52.5866 222.5,51.5C 223.107,51.6236 223.44,51.9569 223.5,52.5 Z"/></g>
<g><path style="opacity:0.005" fill="#f2fff2" d="M 215.5,59.5 C 214.833,59.5 214.5,59.8333 214.5,60.5C 212.025,60.2533 212.025,59.5866 214.5,58.5C 215.107,58.6236 215.44,58.9569 215.5,59.5 Z"/></g>
<g><path style="opacity:0.008" fill="#dae4da" d="M 208.5,65.5 C 207.833,65.5 207.5,65.8333 207.5,66.5C 205.025,66.2533 205.025,65.5866 207.5,64.5C 208.107,64.6236 208.44,64.9569 208.5,65.5 Z"/></g>
<g><path style="opacity:0.009" fill="#fefffe" d="M 200.5,72.5 C 199.833,72.5 199.5,72.8333 199.5,73.5C 197.025,73.2533 197.025,72.5866 199.5,71.5C 200.107,71.6236 200.44,71.9569 200.5,72.5 Z"/></g>
<g><path style="opacity:0.008" fill="#fefffe" d="M 192.5,79.5 C 191.833,79.5 191.5,79.8333 191.5,80.5C 189.025,80.2533 189.025,79.5866 191.5,78.5C 192.107,78.6236 192.44,78.9569 192.5,79.5 Z"/></g>
<g><path style="opacity:0.007" fill="#f5fff4" d="M 185.5,85.5 C 184.833,85.5 184.5,85.8333 184.5,86.5C 182.025,86.2533 182.025,85.5866 184.5,84.5C 185.107,84.6236 185.44,84.9569 185.5,85.5 Z"/></g>
<g><path style="opacity:0.012" fill="#dbffd9" d="M 177.5,92.5 C 176.833,92.5 176.5,92.8333 176.5,93.5C 174.025,93.2533 174.025,92.5866 176.5,91.5C 177.107,91.6236 177.44,91.9569 177.5,92.5 Z"/></g>
<g><path style="opacity:0.005" fill="#f2fff2" d="M 169.5,99.5 C 168.833,99.5 168.5,99.8333 168.5,100.5C 166.025,100.253 166.025,99.5866 168.5,98.5C 169.107,98.6236 169.44,98.9569 169.5,99.5 Z"/></g>
<g><path style="opacity:0.004" fill="#a5ff92" d="M 161.5,106.5 C 160.833,106.5 160.5,106.833 160.5,107.5C 158.025,107.253 158.025,106.587 160.5,105.5C 161.107,105.624 161.44,105.957 161.5,106.5 Z"/></g>
<g><path style="opacity:0.012" fill="#b4ffb2" d="M 154.5,112.5 C 153.833,112.5 153.5,112.833 153.5,113.5C 151.025,113.253 151.025,112.587 153.5,111.5C 154.107,111.624 154.44,111.957 154.5,112.5 Z"/></g>
<g><path style="opacity:0.007" fill="#fffef2" d="M 146.5,119.5 C 145.833,119.5 145.5,119.833 145.5,120.5C 143.025,120.253 143.025,119.587 145.5,118.5C 146.107,118.624 146.44,118.957 146.5,119.5 Z"/></g>
<g><path style="opacity:0.005" fill="#f1f1f1" d="M 138.5,126.5 C 137.833,126.5 137.5,126.833 137.5,127.5C 135.025,127.253 135.025,126.587 137.5,125.5C 138.107,125.624 138.44,125.957 138.5,126.5 Z"/></g>
<g><path style="opacity:0.012" fill="#b4ffb2" d="M 131.5,132.5 C 130.833,132.5 130.5,132.833 130.5,133.5C 128.025,133.253 128.025,132.587 130.5,131.5C 131.107,131.624 131.44,131.957 131.5,132.5 Z"/></g>
<g><path style="opacity:0.009" fill="#fefffe" d="M 123.5,139.5 C 122.833,139.5 122.5,139.833 122.5,140.5C 120.025,140.253 120.025,139.587 122.5,138.5C 123.107,138.624 123.44,138.957 123.5,139.5 Z"/></g>
<g><path style="opacity:0.005" fill="#f2fff2" d="M 115.5,146.5 C 114.833,146.5 114.5,146.833 114.5,147.5C 112.025,147.253 112.025,146.587 114.5,145.5C 115.107,145.624 115.44,145.957 115.5,146.5 Z"/></g>
<g><path style="opacity:0.012" fill="#f5ffce" d="M 108.5,152.5 C 107.833,152.5 107.5,152.833 107.5,153.5C 105.025,153.253 105.025,152.587 107.5,151.5C 108.107,151.624 108.44,151.957 108.5,152.5 Z"/></g>
<g><path style="opacity:0.009" fill="#fefffe" d="M 100.5,159.5 C 99.8333,159.5 99.5,159.833 99.5,160.5C 97.0248,160.253 97.0248,159.587 99.5,158.5C 100.107,158.624 100.44,158.957 100.5,159.5 Z"/></g>
<g><path style="opacity:0.005" fill="#f2fff2" d="M 92.5,166.5 C 91.8333,166.5 91.5,166.833 91.5,167.5C 89.0248,167.253 89.0248,166.587 91.5,165.5C 92.1067,165.624 92.44,165.957 92.5,166.5 Z"/></g>
<g><path style="opacity:0.006" fill="#dff5db" d="M 77.5,179.5 C 76.8333,179.5 76.5,179.833 76.5,180.5C 74.0248,180.253 74.0248,179.587 76.5,178.5C 77.1067,178.624 77.44,178.957 77.5,179.5 Z"/></g>
<g><path style="opacity:0.008" fill="#beffb9" d="M 69.5,186.5 C 68.8333,186.5 68.5,186.833 68.5,187.5C 66.0248,187.253 66.0248,186.587 68.5,185.5C 69.1067,185.624 69.44,185.957 69.5,186.5 Z"/></g>
<g><path style="opacity:0.006" fill="#dfffdb" d="M 54.5,199.5 C 53.8333,199.5 53.5,199.833 53.5,200.5C 51.0248,200.253 51.0248,199.587 53.5,198.5C 54.1067,198.624 54.44,198.957 54.5,199.5 Z"/></g>
<g><path style="opacity:0.007" fill="#fffef2" d="M 46.5,206.5 C 45.8333,206.5 45.5,206.833 45.5,207.5C 43.0248,207.253 43.0248,206.587 45.5,205.5C 46.1067,205.624 46.44,205.957 46.5,206.5 Z"/></g>
<g><path style="opacity:0.007" fill="#fefffe" d="M 38.5,213.5 C 37.8333,213.5 37.5,213.833 37.5,214.5C 35.0248,214.253 35.0248,213.587 37.5,212.5C 38.1067,212.624 38.44,212.957 38.5,213.5 Z"/></g>
<g><path style="opacity:0.012" fill="#b4ffb2" d="M 31.5,219.5 C 30.8333,219.5 30.5,219.833 30.5,220.5C 28.0248,220.253 28.0248,219.587 30.5,218.5C 31.1067,218.624 31.44,218.957 31.5,219.5 Z"/></g>
<g><path style="opacity:0.008" fill="#cdffc7" d="M 23.5,226.5 C 22.8333,226.5 22.5,226.833 22.5,227.5C 20.0248,227.253 20.0248,226.587 22.5,225.5C 23.1067,225.624 23.44,225.957 23.5,226.5 Z"/></g>
<g><path style="opacity:0.005" fill="#f2fff2" d="M 15.5,233.5 C 14.8333,233.5 14.5,233.833 14.5,234.5C 12.0248,234.253 12.0248,233.587 14.5,232.5C 15.1067,232.624 15.44,232.957 15.5,233.5 Z"/></g>
<g><path style="opacity:0.012" fill="#caf5c1" d="M 8.5,239.5 C 7.83333,239.5 7.5,239.833 7.5,240.5C 5.02482,240.253 5.02482,239.587 7.5,238.5C 8.10667,238.624 8.44001,238.957 8.5,239.5 Z"/></g>
</svg>
