<?xml version="1.0" encoding="UTF-8"?>
<!DOCTYPE svg PUBLIC "-//W3C//DTD SVG 1.1//EN" "http://www.w3.org/Graphics/SVG/1.1/DTD/svg11.dtd">
<svg xmlns="http://www.w3.org/2000/svg" version="1.1" width="3442px" height="992px" style="shape-rendering:geometricPrecision; text-rendering:geometricPrecision; image-rendering:optimizeQuality; fill-rule:evenodd; clip-rule:evenodd" xmlns:xlink="http://www.w3.org/1999/xlink">
<g><path style="opacity:1" fill="#000000" d="M 881.5,1.5 C 908.167,1.5 934.833,1.5 961.5,1.5C 961.5,64.1667 961.5,126.833 961.5,189.5C 1202.17,189.5 1442.83,189.5 1683.5,189.5C 1683.5,456.167 1683.5,722.833 1683.5,989.5C 1416.17,989.5 1148.83,989.5 881.5,989.5C 881.5,660.167 881.5,330.833 881.5,1.5 Z M 961.5,269.5 C 1175.5,269.5 1389.5,269.5 1603.5,269.5C 1603.5,482.833 1603.5,696.167 1603.5,909.5C 1389.5,909.5 1175.5,909.5 961.5,909.5C 961.5,696.167 961.5,482.833 961.5,269.5 Z"/></g>
<g><path style="opacity:1" fill="#000000" d="M 2121.5,7.5 C 2148.17,7.5 2174.83,7.5 2201.5,7.5C 2201.5,34.1667 2201.5,60.8333 2201.5,87.5C 2174.83,87.5 2148.17,87.5 2121.5,87.5C 2121.5,60.8333 2121.5,34.1667 2121.5,7.5 Z"/></g>
<g><path style="opacity:1" fill="#000000" d="M 1.5,189.5 C 28.1667,189.5 54.8333,189.5 81.5,189.5C 81.5,429.5 81.5,669.5 81.5,909.5C 295.5,909.5 509.5,909.5 723.5,909.5C 723.5,669.5 723.5,429.5 723.5,189.5C 750.167,189.5 776.833,189.5 803.5,189.5C 803.5,456.167 803.5,722.833 803.5,989.5C 536.167,989.5 268.833,989.5 1.5,989.5C 1.5,722.833 1.5,456.167 1.5,189.5 Z"/></g>
<g><path style="opacity:1" fill="#f1b13c" d="M 2121.5,189.5 C 2121.5,456.167 2121.5,722.833 2121.5,989.5C 2001.5,989.5 1881.5,989.5 1761.5,989.5C 1761.5,722.833 1761.5,456.167 1761.5,189.5C 1881.5,189.5 2001.5,189.5 2121.5,189.5 Z"/></g>
<g><path style="opacity:1" fill="#000000" d="M 2121.5,189.5 C 2148.17,189.5 2174.83,189.5 2201.5,189.5C 2201.5,456.167 2201.5,722.833 2201.5,989.5C 2174.83,989.5 2148.17,989.5 2121.5,989.5C 2121.5,722.833 2121.5,456.167 2121.5,189.5 Z"/></g>
<g><path style="opacity:1" fill="#f1b13c" d="M 2201.5,189.5 C 2321.5,189.5 2441.5,189.5 2561.5,189.5C 2561.5,456.167 2561.5,722.833 2561.5,989.5C 2441.5,989.5 2321.5,989.5 2201.5,989.5C 2201.5,722.833 2201.5,456.167 2201.5,189.5 Z"/></g>
<g><path style="opacity:0.994" fill="#000000" d="M 2639.5,189.5 C 2906.17,189.5 3172.83,189.5 3439.5,189.5C 3439.83,216.408 3439.49,243.241 3438.5,270C 3440.01,270.837 3440.51,272.004 3440,273.5C 3212.83,485.333 2985.67,697.167 2758.5,909C 2985.5,909.5 3212.5,909.667 3439.5,909.5C 3439.5,936.167 3439.5,962.833 3439.5,989.5C 3172.83,989.5 2906.17,989.5 2639.5,989.5C 2639.33,962.498 2639.5,935.498 2640,908.5C 2868.17,695.667 3096.33,482.833 3324.5,270C 3096.17,269.5 2867.83,269.333 2639.5,269.5C 2639.5,242.833 2639.5,216.167 2639.5,189.5 Z"/></g>
</svg>
