<svg id="svg" version="1.1" xmlns="http://www.w3.org/2000/svg" xmlns:xlink="http://www.w3.org/1999/xlink" width="40" height="12" viewBox="0, 0, 400,115.28181289947705"><g id="svgg"><path id="path1" d="M102.500 57.583 L 102.500 115.000 149.167 115.000 L 195.833 115.000 195.833 68.500 L 195.833 22.000 153.833 22.000 L 111.833 22.000 111.833 11.083 L 111.833 0.167 107.167 0.167 L 102.500 0.167 102.500 57.583 M246.500 5.583 L 246.500 10.333 251.250 10.333 L 256.000 10.333 256.000 5.583 L 256.000 0.833 251.250 0.833 L 246.500 0.833 246.500 5.583 M0.167 68.500 L 0.167 115.000 46.833 115.000 L 93.500 115.000 93.500 68.500 L 93.500 22.000 88.750 22.000 L 84.000 22.000 84.000 63.833 L 84.000 105.667 46.833 105.667 L 9.667 105.667 9.667 63.833 L 9.667 22.000 4.917 22.000 L 0.167 22.000 0.167 68.500 M246.667 68.500 L 246.667 115.000 251.250 115.000 L 255.833 115.000 255.833 68.500 L 255.833 22.000 251.250 22.000 L 246.667 22.000 246.667 68.500 M306.667 26.667 L 306.667 31.333 346.417 31.333 C 370.732 31.333,386.167 31.393,386.167 31.488 C 386.167 31.573,385.962 31.804,385.711 32.001 C 385.300 32.324,382.214 35.170,380.922 36.417 C 380.637 36.692,379.507 37.741,378.410 38.748 C 377.314 39.756,376.150 40.843,375.824 41.165 C 375.499 41.487,374.824 42.116,374.324 42.564 C 373.497 43.306,370.529 46.067,369.020 47.500 C 368.682 47.821,367.509 48.908,366.413 49.917 C 365.318 50.925,364.195 51.976,363.919 52.252 C 363.643 52.528,362.519 53.578,361.421 54.586 C 360.323 55.593,359.073 56.754,358.643 57.167 C 358.213 57.579,357.495 58.254,357.047 58.667 C 355.467 60.122,352.271 63.087,351.928 63.417 C 351.737 63.600,350.569 64.687,349.332 65.833 C 348.095 66.978,346.851 68.141,346.567 68.416 C 346.283 68.691,345.233 69.667,344.234 70.583 C 343.235 71.500,341.864 72.775,341.188 73.417 C 339.707 74.821,339.743 74.788,337.245 77.081 C 336.148 78.088,335.024 79.138,334.748 79.414 C 334.471 79.691,333.348 80.742,332.252 81.750 C 331.155 82.758,329.906 83.921,329.476 84.333 C 329.046 84.746,328.329 85.421,327.883 85.833 C 324.983 88.512,323.028 90.328,322.500 90.833 C 322.164 91.154,321.033 92.203,319.987 93.164 C 318.940 94.125,317.815 95.175,317.486 95.498 C 317.158 95.820,316.070 96.833,315.070 97.750 C 314.069 98.667,312.726 99.914,312.084 100.521 C 309.994 102.499,308.098 104.266,307.375 104.909 L 306.667 105.539 306.667 110.269 L 306.667 115.000 353.250 115.000 L 399.833 115.000 399.833 110.333 L 399.833 105.667 360.339 105.667 C 328.802 105.667,320.863 105.625,320.941 105.458 C 320.995 105.344,321.574 104.766,322.228 104.175 C 323.328 103.180,326.367 100.364,327.812 99.000 C 328.152 98.679,329.284 97.629,330.327 96.667 C 331.370 95.704,332.455 94.691,332.737 94.414 C 333.019 94.138,334.146 93.088,335.241 92.081 C 336.336 91.074,337.504 89.987,337.836 89.667 C 338.168 89.346,339.256 88.333,340.253 87.417 C 341.251 86.500,342.455 85.375,342.930 84.917 C 343.405 84.458,344.121 83.783,344.522 83.416 C 347.417 80.763,349.164 79.144,349.829 78.500 C 350.255 78.087,351.499 76.925,352.593 75.917 C 354.881 73.807,356.075 72.693,357.059 71.750 C 357.441 71.383,358.572 70.333,359.572 69.417 C 360.571 68.500,361.620 67.524,361.903 67.248 C 362.185 66.972,362.942 66.265,363.583 65.676 C 364.225 65.088,365.393 64.002,366.178 63.262 C 366.964 62.522,368.500 61.092,369.593 60.083 C 370.686 59.075,371.890 57.950,372.269 57.583 C 372.648 57.217,373.773 56.167,374.770 55.250 C 377.701 52.557,378.715 51.614,379.252 51.083 C 379.531 50.808,380.657 49.760,381.754 48.753 C 382.852 47.747,384.102 46.584,384.533 46.170 C 385.562 45.179,386.538 44.270,388.741 42.250 C 389.740 41.333,390.789 40.358,391.071 40.083 C 391.353 39.807,392.594 38.645,393.830 37.499 C 395.065 36.354,396.302 35.202,396.580 34.939 C 396.857 34.677,397.736 33.858,398.534 33.120 C 399.332 32.381,399.947 31.715,399.899 31.639 C 399.852 31.563,399.820 29.363,399.828 26.750 L 399.843 22.000 353.255 22.000 L 306.667 22.000 306.667 26.667 M186.333 68.500 L 186.333 105.667 149.083 105.667 L 111.833 105.667 111.833 68.500 L 111.833 31.333 149.083 31.333 L 186.333 31.333 186.333 68.500 " stroke="none" fill="#040404" fill-rule="evenodd"></path><path id="path2" d="M246.582 68.500 C 246.582 94.121,246.601 104.602,246.625 91.792 C 246.649 78.981,246.649 58.019,246.625 45.208 C 246.601 32.398,246.582 42.879,246.582 68.500 " stroke="none" fill="#3438f8" fill-rule="evenodd"></path><path id="path3" d="M255.915 68.500 C 255.915 94.121,255.935 104.602,255.958 91.792 C 255.982 78.981,255.982 58.019,255.958 45.208 C 255.935 32.398,255.915 42.879,255.915 68.500 " stroke="none" fill="#343844" fill-rule="evenodd"></path><path id="path4" d="" stroke="none" fill="#343c04" fill-rule="evenodd"></path><path id="path0" d="M204.667 68.500 L 204.667 115.000 225.583 115.000 L 246.500 115.000 246.500 68.500 L 246.500 22.000 225.583 22.000 L 204.667 22.000 204.667 68.500 M256.000 68.500 L 256.000 115.000 276.917 115.000 L 297.833 115.000 297.833 68.500 L 297.833 22.000 276.917 22.000 L 256.000 22.000 256.000 68.500 " stroke="none" fill="#646cf4" fill-rule="evenodd"></path><path id="path1" d="M102.500 57.583 L 102.500 115.000 149.167 115.000 L 195.833 115.000 195.833 68.500 L 195.833 22.000 153.833 22.000 L 111.833 22.000 111.833 11.083 L 111.833 0.167 107.167 0.167 L 102.500 0.167 102.500 57.583 M246.500 5.583 L 246.500 10.333 251.250 10.333 L 256.000 10.333 256.000 5.583 L 256.000 0.833 251.250 0.833 L 246.500 0.833 246.500 5.583 M0.167 68.500 L 0.167 115.000 46.833 115.000 L 93.500 115.000 93.500 68.500 L 93.500 22.000 88.750 22.000 L 84.000 22.000 84.000 63.833 L 84.000 105.667 46.833 105.667 L 9.667 105.667 9.667 63.833 L 9.667 22.000 4.917 22.000 L 0.167 22.000 0.167 68.500 M246.667 68.500 L 246.667 115.000 251.250 115.000 L 255.833 115.000 255.833 68.500 L 255.833 22.000 251.250 22.000 L 246.667 22.000 246.667 68.500 M306.667 26.667 L 306.667 31.333 346.417 31.333 C 370.732 31.333,386.167 31.393,386.167 31.488 C 386.167 31.573,385.962 31.804,385.711 32.001 C 385.300 32.324,382.214 35.170,380.922 36.417 C 380.637 36.692,379.507 37.741,378.410 38.748 C 377.314 39.756,376.150 40.843,375.824 41.165 C 375.499 41.487,374.824 42.116,374.324 42.564 C 373.497 43.306,370.529 46.067,369.020 47.500 C 368.682 47.821,367.509 48.908,366.413 49.917 C 365.318 50.925,364.195 51.976,363.919 52.252 C 363.643 52.528,362.519 53.578,361.421 54.586 C 360.323 55.593,359.073 56.754,358.643 57.167 C 358.213 57.579,357.495 58.254,357.047 58.667 C 355.467 60.122,352.271 63.087,351.928 63.417 C 351.737 63.600,350.569 64.687,349.332 65.833 C 348.095 66.978,346.851 68.141,346.567 68.416 C 346.283 68.691,345.233 69.667,344.234 70.583 C 343.235 71.500,341.864 72.775,341.188 73.417 C 339.707 74.821,339.743 74.788,337.245 77.081 C 336.148 78.088,335.024 79.138,334.748 79.414 C 334.471 79.691,333.348 80.742,332.252 81.750 C 331.155 82.758,329.906 83.921,329.476 84.333 C 329.046 84.746,328.329 85.421,327.883 85.833 C 324.983 88.512,323.028 90.328,322.500 90.833 C 322.164 91.154,321.033 92.203,319.987 93.164 C 318.940 94.125,317.815 95.175,317.486 95.498 C 317.158 95.820,316.070 96.833,315.070 97.750 C 314.069 98.667,312.726 99.914,312.084 100.521 C 309.994 102.499,308.098 104.266,307.375 104.909 L 306.667 105.539 306.667 110.269 L 306.667 115.000 353.250 115.000 L 399.833 115.000 399.833 110.333 L 399.833 105.667 360.339 105.667 C 328.802 105.667,320.863 105.625,320.941 105.458 C 320.995 105.344,321.574 104.766,322.228 104.175 C 323.328 103.180,326.367 100.364,327.812 99.000 C 328.152 98.679,329.284 97.629,330.327 96.667 C 331.370 95.704,332.455 94.691,332.737 94.414 C 333.019 94.138,334.146 93.088,335.241 92.081 C 336.336 91.074,337.504 89.987,337.836 89.667 C 338.168 89.346,339.256 88.333,340.253 87.417 C 341.251 86.500,342.455 85.375,342.930 84.917 C 343.405 84.458,344.121 83.783,344.522 83.416 C 347.417 80.763,349.164 79.144,349.829 78.500 C 350.255 78.087,351.499 76.925,352.593 75.917 C 354.881 73.807,356.075 72.693,357.059 71.750 C 357.441 71.383,358.572 70.333,359.572 69.417 C 360.571 68.500,361.620 67.524,361.903 67.248 C 362.185 66.972,362.942 66.265,363.583 65.676 C 364.225 65.088,365.393 64.002,366.178 63.262 C 366.964 62.522,368.500 61.092,369.593 60.083 C 370.686 59.075,371.890 57.950,372.269 57.583 C 372.648 57.217,373.773 56.167,374.770 55.250 C 377.701 52.557,378.715 51.614,379.252 51.083 C 379.531 50.808,380.657 49.760,381.754 48.753 C 382.852 47.747,384.102 46.584,384.533 46.170 C 385.562 45.179,386.538 44.270,388.741 42.250 C 389.740 41.333,390.789 40.358,391.071 40.083 C 391.353 39.807,392.594 38.645,393.830 37.499 C 395.065 36.354,396.302 35.202,396.580 34.939 C 396.857 34.677,397.736 33.858,398.534 33.120 C 399.332 32.381,399.947 31.715,399.899 31.639 C 399.852 31.563,399.820 29.363,399.828 26.750 L 399.843 22.000 353.255 22.000 L 306.667 22.000 306.667 26.667 M186.333 68.500 L 186.333 105.667 149.083 105.667 L 111.833 105.667 111.833 68.500 L 111.833 31.333 149.083 31.333 L 186.333 31.333 186.333 68.500 " stroke="none" fill="#040404" fill-rule="evenodd"></path><path id="path2" d="M246.582 68.500 C 246.582 94.121,246.601 104.602,246.625 91.792 C 246.649 78.981,246.649 58.019,246.625 45.208 C 246.601 32.398,246.582 42.879,246.582 68.500 " stroke="none" fill="#3438f8" fill-rule="evenodd"></path><path id="path3" d="M255.915 68.500 C 255.915 94.121,255.935 104.602,255.958 91.792 C 255.982 78.981,255.982 58.019,255.958 45.208 C 255.935 32.398,255.915 42.879,255.915 68.500 " stroke="none" fill="#343844" fill-rule="evenodd"></path><path id="path4" d="" stroke="none" fill="#343c04" fill-rule="evenodd"></path></g></svg>