<?xml version="1.0" encoding="UTF-8"?>
<!DOCTYPE svg PUBLIC "-//W3C//DTD SVG 1.1//EN" "http://www.w3.org/Graphics/SVG/1.1/DTD/svg11.dtd">
<svg xmlns="http://www.w3.org/2000/svg" version="1.1" width="512px" height="512px" style="shape-rendering:geometricPrecision; text-rendering:geometricPrecision; image-rendering:optimizeQuality; fill-rule:evenodd; clip-rule:evenodd" xmlns:xlink="http://www.w3.org/1999/xlink">
<g><path style="opacity:1" fill="#694b4b" d="M 305.5,65.5 C 304.482,76.4811 304.316,87.4811 305,98.5C 311.655,120.494 324.488,137.994 343.5,151C 350.074,156.904 355.908,163.404 361,170.5C 370.05,233.268 360.717,293.268 333,350.5C 332.329,351.252 331.496,351.586 330.5,351.5C 328.883,350.962 327.216,350.629 325.5,350.5C 323.033,343.169 319.033,336.669 313.5,331C 309.077,329.882 305.41,331.049 302.5,334.5C 301.21,333.942 300.377,332.942 300,331.5C 299.5,324.174 299.334,316.841 299.5,309.5C 299.5,308.5 299.5,307.5 299.5,306.5C 308.77,301.528 317.77,296.028 326.5,290C 331.99,283.852 335.49,276.685 337,268.5C 339.265,245.012 341.432,221.512 343.5,198C 343.945,190.336 341.779,183.503 337,177.5C 326.661,165.995 315.828,154.995 304.5,144.5C 303.356,141.553 301.689,138.887 299.5,136.5C 292.831,142.499 285.498,147.499 277.5,151.5C 276.903,150.861 276.07,150.528 275,150.5C 264.981,152.898 254.815,153.898 244.5,153.5C 220.174,151.692 195.84,151.359 171.5,152.5C 172.77,120.501 185.103,93.6677 208.5,72C 215.164,67.005 222.497,63.3384 230.5,61C 228.292,60.8091 226.292,60.3091 224.5,59.5C 252.101,54.0087 279.101,56.0087 305.5,65.5 Z"/></g>
<g><path style="opacity:1" fill="#5b4247" d="M 224.5,59.5 C 226.292,60.3091 228.292,60.8091 230.5,61C 222.497,63.3384 215.164,67.005 208.5,72C 185.103,93.6677 172.77,120.501 171.5,152.5C 195.84,151.359 220.174,151.692 244.5,153.5C 254.815,153.898 264.981,152.898 275,150.5C 276.07,150.528 276.903,150.861 277.5,151.5C 269.681,154.495 261.681,156.995 253.5,159C 234.961,162.108 216.628,166.108 198.5,171C 179.239,178.278 169.239,192.278 168.5,213C 170.621,230.469 172.454,247.969 174,265.5C 174.861,277.391 180.027,286.891 189.5,294C 197.058,297.941 204.392,302.108 211.5,306.5C 211.666,314.174 211.5,321.841 211,329.5C 210.802,331.382 210.302,333.048 209.5,334.5C 207.388,333.56 205.388,332.394 203.5,331C 201.5,330.333 199.5,330.333 197.5,331C 192.607,336.627 188.607,342.794 185.5,349.5C 172.886,355.598 159.886,360.932 146.5,365.5C 139.112,363.405 134.279,358.738 132,351.5C 131.667,345.167 131.333,338.833 131,332.5C 130.329,331.748 129.496,331.414 128.5,331.5C 127.428,327.529 125.428,324.029 122.5,321C 119.593,320.282 116.926,320.782 114.5,322.5C 113.593,316.894 113.26,311.227 113.5,305.5C 119.727,302.469 125.56,298.803 131,294.5C 131.5,277.503 131.667,260.503 131.5,243.5C 132.257,229.32 133.091,214.986 134,200.5C 134.515,193.043 135.681,185.709 137.5,178.5C 137.376,177.893 137.043,177.56 136.5,177.5C 140.004,154.487 146.837,132.487 157,111.5C 171.589,83.9494 194.089,66.616 224.5,59.5 Z"/></g>
<g><path style="opacity:1" fill="#785651" d="M 305.5,65.5 C 331.354,77.5233 349.521,96.8566 360,123.5C 364.675,135.192 368.342,147.192 371,159.5C 372.145,160.684 373.312,160.684 374.5,159.5C 374.179,161.048 373.179,161.715 371.5,161.5C 373.852,177.634 376.185,193.634 378.5,209.5C 380.595,247.821 380.928,286.154 379.5,324.5C 379.666,334.172 379.5,343.839 379,353.5C 377.988,356.202 376.488,358.535 374.5,360.5C 371.15,362.196 367.817,363.863 364.5,365.5C 352.881,361.352 341.548,356.685 330.5,351.5C 331.496,351.586 332.329,351.252 333,350.5C 360.717,293.268 370.05,233.268 361,170.5C 355.908,163.404 350.074,156.904 343.5,151C 324.488,137.994 311.655,120.494 305,98.5C 304.316,87.4811 304.482,76.4811 305.5,65.5 Z"/></g>
<g><path style="opacity:1" fill="#e5ae77" d="M 304.5,144.5 C 296.545,154.33 286.545,161.496 274.5,166C 256.538,171.572 238.871,177.905 221.5,185C 216.734,187.429 213.9,191.263 213,196.5C 212.676,220.632 214.343,244.632 218,268.5C 223.122,290.609 234.622,308.442 252.5,322C 255.561,324.035 258.895,325.201 262.5,325.5C 256.928,326.87 251.261,326.703 245.5,325C 234.3,318.567 222.966,312.4 211.5,306.5C 204.392,302.108 197.058,297.941 189.5,294C 180.027,286.891 174.861,277.391 174,265.5C 172.454,247.969 170.621,230.469 168.5,213C 169.239,192.278 179.239,178.278 198.5,171C 216.628,166.108 234.961,162.108 253.5,159C 261.681,156.995 269.681,154.495 277.5,151.5C 285.498,147.499 292.831,142.499 299.5,136.5C 301.689,138.887 303.356,141.553 304.5,144.5 Z"/></g>
<g><path style="opacity:1" fill="#efbf86" d="M 304.5,144.5 C 315.828,154.995 326.661,165.995 337,177.5C 341.779,183.503 343.945,190.336 343.5,198C 341.432,221.512 339.265,245.012 337,268.5C 335.49,276.685 331.99,283.852 326.5,290C 317.77,296.028 308.77,301.528 299.5,306.5C 287.292,313.104 274.959,319.437 262.5,325.5C 258.895,325.201 255.561,324.035 252.5,322C 234.622,308.442 223.122,290.609 218,268.5C 214.343,244.632 212.676,220.632 213,196.5C 213.9,191.263 216.734,187.429 221.5,185C 238.871,177.905 256.538,171.572 274.5,166C 286.545,161.496 296.545,154.33 304.5,144.5 Z"/></g>
<g><path style="opacity:0.999" fill="#694c4c" d="M 449.5,171.5 C 449.082,172.222 448.416,172.722 447.5,173C 453.47,185.916 450.47,196.083 438.5,203.5C 437.833,203.833 437.167,204.167 436.5,204.5C 430.293,206.442 423.96,207.942 417.5,209C 404.461,208.663 391.461,208.829 378.5,209.5C 376.185,193.634 373.852,177.634 371.5,161.5C 373.179,161.715 374.179,161.048 374.5,159.5C 390.357,155.682 406.357,154.849 422.5,157C 432.07,159.114 440.07,163.78 446.5,171C 447.448,171.483 448.448,171.649 449.5,171.5 Z"/></g>
<g><path style="opacity:1" fill="#6b4c4c" d="M 136.5,177.5 C 137.043,177.56 137.376,177.893 137.5,178.5C 135.681,185.709 134.515,193.043 134,200.5C 133.091,214.986 132.257,229.32 131.5,243.5C 131.666,237.158 131.5,230.825 131,224.5C 126.298,219.63 121.465,214.963 116.5,210.5C 115.984,208.8 114.984,207.467 113.5,206.5C 108.745,209.925 103.745,212.925 98.5,215.5C 78.3958,215.676 58.0624,215.676 37.5,215.5C 39.2113,197.502 46.2113,182.002 58.5,169C 61.8333,167 65.1667,165 68.5,163C 67.944,162.617 67.6107,162.117 67.5,161.5C 86.725,156.293 105.392,158.126 123.5,167C 128.287,169.955 132.62,173.455 136.5,177.5 Z"/></g>
<g><path style="opacity:1" fill="#5d4448" d="M 67.5,161.5 C 67.6107,162.117 67.944,162.617 68.5,163C 65.1667,165 61.8333,167 58.5,169C 46.2113,182.002 39.2113,197.502 37.5,215.5C 58.0624,215.676 78.3958,215.676 98.5,215.5C 83.9282,219.315 69.2615,222.815 54.5,226C 42.4627,230.242 36.4627,238.742 36.5,251.5C 37.6152,263.884 39.1152,276.217 41,288.5C 42.4394,291.603 44.2728,294.436 46.5,297C 51.3333,299.833 56.1667,302.667 61,305.5C 61.7847,311.249 61.6181,316.916 60.5,322.5C 58.1643,320.609 55.4976,320.109 52.5,321C 50.0969,324.311 48.0969,327.811 46.5,331.5C 38.7644,334.354 31.2644,337.688 24,341.5C 23.6174,340.944 23.1174,340.611 22.5,340.5C 19.1302,339.568 16.6302,337.568 15,334.5C 14.3333,307.833 14.3333,281.167 15,254.5C 15.7203,235.232 19.387,216.565 26,198.5C 33.4556,178.871 47.289,166.538 67.5,161.5 Z"/></g>
<g><path style="opacity:1" fill="#7b5a55" d="M 449.5,171.5 C 456.781,174.28 461.947,179.28 465,186.5C 469.215,198.122 471.381,210.122 471.5,222.5C 469.628,226.903 467.461,231.236 465,235.5C 464.338,237.813 463.838,240.146 463.5,242.5C 460.545,241.841 457.545,241.508 454.5,241.5C 455.136,227.181 450.803,214.681 441.5,204C 440.552,203.517 439.552,203.351 438.5,203.5C 450.47,196.083 453.47,185.916 447.5,173C 448.416,172.722 449.082,172.222 449.5,171.5 Z"/></g>
<g><path style="opacity:1" fill="#eebf86" d="M 438.5,203.5 C 439.552,203.351 440.552,203.517 441.5,204C 450.803,214.681 455.136,227.181 454.5,241.5C 457.545,241.508 460.545,241.841 463.5,242.5C 465.723,244.441 467.056,246.941 467.5,250C 465.889,257.612 463.889,265.112 461.5,272.5C 459.827,274.086 457.827,274.753 455.5,274.5C 456.473,285.26 452.473,293.593 443.5,299.5C 442.507,304.12 442.173,308.786 442.5,313.5C 441.675,309.353 441.175,305.019 441,300.5C 435.445,305.055 429.612,309.221 423.5,313C 409.095,318.077 397.595,314.577 389,302.5C 385.703,297.615 383.369,292.282 382,286.5C 381.023,265.411 381.357,244.411 383,223.5C 384.251,220.619 386.417,218.786 389.5,218C 404.956,217.906 419.623,214.573 433.5,208C 434.71,206.961 435.71,205.794 436.5,204.5C 437.167,204.167 437.833,203.833 438.5,203.5 Z"/></g>
<g><path style="opacity:1" fill="#e1aa76" d="M 436.5,204.5 C 435.71,205.794 434.71,206.961 433.5,208C 419.623,214.573 404.956,217.906 389.5,218C 386.417,218.786 384.251,220.619 383,223.5C 381.357,244.411 381.023,265.411 382,286.5C 383.369,292.282 385.703,297.615 389,302.5C 397.595,314.577 409.095,318.077 423.5,313C 429.612,309.221 435.445,305.055 441,300.5C 441.175,305.019 441.675,309.353 442.5,313.5C 442.833,313.5 443.167,313.5 443.5,313.5C 431.335,324.84 418.835,335.84 406,346.5C 404.775,346.138 403.609,345.638 402.5,345C 394.962,337.959 387.296,331.126 379.5,324.5C 380.928,286.154 380.595,247.821 378.5,209.5C 391.461,208.829 404.461,208.663 417.5,209C 423.96,207.942 430.293,206.442 436.5,204.5 Z"/></g>
<g><path style="opacity:1" fill="#e1ab76" d="M 116.5,210.5 C 111.884,215.929 106.217,220.096 99.5,223C 88.2815,226.406 77.2815,230.406 66.5,235C 64.9512,236.214 63.7845,237.714 63,239.5C 61.8868,256.035 63.2202,272.368 67,288.5C 71.0779,301.564 79.0779,311.23 91,317.5C 98.8836,314.092 106.384,310.092 113.5,305.5C 113.26,311.227 113.593,316.894 114.5,322.5C 106.123,329.702 97.29,336.368 88,342.5C 78.5175,336.184 69.3509,329.518 60.5,322.5C 61.6181,316.916 61.7847,311.249 61,305.5C 56.1667,302.667 51.3333,299.833 46.5,297C 44.2728,294.436 42.4394,291.603 41,288.5C 39.1152,276.217 37.6152,263.884 36.5,251.5C 36.4627,238.742 42.4627,230.242 54.5,226C 69.2615,222.815 83.9282,219.315 98.5,215.5C 103.745,212.925 108.745,209.925 113.5,206.5C 114.984,207.467 115.984,208.8 116.5,210.5 Z"/></g>
<g><path style="opacity:1" fill="#efbf86" d="M 116.5,210.5 C 121.465,214.963 126.298,219.63 131,224.5C 131.5,230.825 131.666,237.158 131.5,243.5C 131.667,260.503 131.5,277.503 131,294.5C 125.56,298.803 119.727,302.469 113.5,305.5C 106.384,310.092 98.8836,314.092 91,317.5C 79.0779,311.23 71.0779,301.564 67,288.5C 63.2202,272.368 61.8868,256.035 63,239.5C 63.7845,237.714 64.9512,236.214 66.5,235C 77.2815,230.406 88.2815,226.406 99.5,223C 106.217,220.096 111.884,215.929 116.5,210.5 Z"/></g>
<g><path style="opacity:1" fill="#d29b6e" d="M 211.5,306.5 C 222.966,312.4 234.3,318.567 245.5,325C 251.261,326.703 256.928,326.87 262.5,325.5C 274.959,319.437 287.292,313.104 299.5,306.5C 299.5,307.5 299.5,308.5 299.5,309.5C 286.65,336.787 264.984,351.453 234.5,353.5C 225.859,347.519 217.525,341.186 209.5,334.5C 210.302,333.048 210.802,331.382 211,329.5C 211.5,321.841 211.666,314.174 211.5,306.5 Z"/></g>
<g><path style="opacity:1" fill="#e5af77" d="M 299.5,309.5 C 299.334,316.841 299.5,324.174 300,331.5C 300.377,332.942 301.21,333.942 302.5,334.5C 287.158,346.496 271.491,358.163 255.5,369.5C 248.252,364.389 241.252,359.056 234.5,353.5C 264.984,351.453 286.65,336.787 299.5,309.5 Z"/></g>
<g><path style="opacity:1" fill="#cfe6c5" d="M 454.5,325.5 C 447.913,337.01 442.08,349.01 437,361.5C 435.136,364.207 432.636,365.041 429.5,364C 425.286,360.118 420.786,356.618 416,353.5C 415.617,354.056 415.117,354.389 414.5,354.5C 412.472,351.163 409.472,348.83 405.5,347.5C 402.262,349.275 399.262,351.275 396.5,353.5C 391.208,356.488 386.208,359.988 381.5,364C 377.795,365.313 375.462,364.146 374.5,360.5C 376.488,358.535 377.988,356.202 379,353.5C 379.5,343.839 379.666,334.172 379.5,324.5C 387.296,331.126 394.962,337.959 402.5,345C 403.609,345.638 404.775,346.138 406,346.5C 418.835,335.84 431.335,324.84 443.5,313.5C 445.223,312.193 447.057,312.193 449,313.5C 452.013,316.997 453.847,320.997 454.5,325.5 Z"/></g>
<g><path style="opacity:1" fill="#d0e8c6" d="M 60.5,322.5 C 69.3509,329.518 78.5175,336.184 88,342.5C 97.29,336.368 106.123,329.702 114.5,322.5C 116.926,320.782 119.593,320.282 122.5,321C 125.428,324.029 127.428,327.529 128.5,331.5C 122.331,339.843 116.331,348.343 110.5,357C 108.029,357.706 105.695,357.373 103.5,356C 100.02,353.354 96.6865,350.521 93.5,347.5C 92.6676,358.485 92.1676,369.485 92,380.5C 88.6612,383.299 85.6612,382.966 83,379.5C 82.6667,368.833 82.3333,358.167 82,347.5C 78.1667,350.667 74.3333,353.833 70.5,357C 68.8333,357.667 67.1667,357.667 65.5,357C 59.0241,348.521 52.6907,340.021 46.5,331.5C 48.0969,327.811 50.0969,324.311 52.5,321C 55.4976,320.109 58.1643,320.609 60.5,322.5 Z"/></g>
<g><path style="opacity:1" fill="#f0f7eb" d="M 454.5,325.5 C 471.328,329.04 487.994,333.207 504.5,338C 505.71,339.039 506.71,340.206 507.5,341.5C 497.222,351.277 487.056,361.277 477,371.5C 476.138,373.087 475.471,374.754 475,376.5C 474.501,381.823 474.334,387.156 474.5,392.5C 470.5,392.5 466.5,392.5 462.5,392.5C 462.731,389.215 461.397,386.715 458.5,385C 449.167,384.333 439.833,384.333 430.5,385C 427.722,386.713 426.055,389.213 425.5,392.5C 418.5,392.5 411.5,392.5 404.5,392.5C 407.962,391.518 411.629,391.185 415.5,391.5C 415.146,379.81 414.479,368.143 413.5,356.5C 413.833,355.833 414.167,355.167 414.5,354.5C 415.117,354.389 415.617,354.056 416,353.5C 420.786,356.618 425.286,360.118 429.5,364C 432.636,365.041 435.136,364.207 437,361.5C 442.08,349.01 447.913,337.01 454.5,325.5 Z"/></g>
<g><path style="opacity:1" fill="#f6ed77" d="M 209.5,334.5 C 217.525,341.186 225.859,347.519 234.5,353.5C 241.252,359.056 248.252,364.389 255.5,369.5C 271.491,358.163 287.158,346.496 302.5,334.5C 305.41,331.049 309.077,329.882 313.5,331C 319.033,336.669 323.033,343.169 325.5,350.5C 315.11,364.256 304.943,378.256 295,392.5C 291.621,394.923 288.121,395.09 284.5,393C 278,387.833 271.5,382.667 265,377.5C 264.667,394.833 264.333,412.167 264,429.5C 261.51,436.16 257.01,437.993 250.5,435C 249.213,433.59 248.046,432.09 247,430.5C 246.667,412.833 246.333,395.167 246,377.5C 239.167,383 232.333,388.5 225.5,394C 223.167,394.667 220.833,394.667 218.5,394C 207.113,379.366 196.113,364.533 185.5,349.5C 188.607,342.794 192.607,336.627 197.5,331C 199.5,330.333 201.5,330.333 203.5,331C 205.388,332.394 207.388,333.56 209.5,334.5 Z"/></g>
<g><path style="opacity:1" fill="#f0f5ed" d="M 46.5,331.5 C 52.6907,340.021 59.0241,348.521 65.5,357C 67.1667,357.667 68.8333,357.667 70.5,357C 74.3333,353.833 78.1667,350.667 82,347.5C 82.3333,358.167 82.6667,368.833 83,379.5C 85.6612,382.966 88.6612,383.299 92,380.5C 92.1676,369.485 92.6676,358.485 93.5,347.5C 96.6865,350.521 100.02,353.354 103.5,356C 105.695,357.373 108.029,357.706 110.5,357C 116.331,348.343 122.331,339.843 128.5,331.5C 129.496,331.414 130.329,331.748 131,332.5C 131.333,338.833 131.667,345.167 132,351.5C 134.279,358.738 139.112,363.405 146.5,365.5C 137.394,369.935 128.06,374.101 118.5,378C 116.237,379.617 114.237,381.45 112.5,383.5C 109.174,386.488 107.174,390.155 106.5,394.5C 73.8333,393.833 41.1667,393.167 8.5,392.5C 15.8333,392.5 23.1667,392.5 30.5,392.5C 30.6662,386.491 30.4995,380.491 30,374.5C 29.3333,373.167 28.6667,371.833 28,370.5C 20.0781,363.466 11.9114,356.799 3.5,350.5C 4.57357,349.115 5.90691,347.949 7.5,347C 12.8074,345.295 17.8074,343.129 22.5,340.5C 23.1174,340.611 23.6174,340.944 24,341.5C 31.2644,337.688 38.7644,334.354 46.5,331.5 Z"/></g>
<g><path style="opacity:1" fill="#cce6c4" d="M 507.5,341.5 C 509.074,342.984 510.407,344.651 511.5,346.5C 511.5,360.5 511.5,374.5 511.5,388.5C 510.038,389.458 508.705,390.624 507.5,392C 496.505,392.5 485.505,392.667 474.5,392.5C 474.334,387.156 474.501,381.823 475,376.5C 475.471,374.754 476.138,373.087 477,371.5C 487.056,361.277 497.222,351.277 507.5,341.5 Z"/></g>
<g><path style="opacity:1" fill="#545665" d="M 414.5,354.5 C 414.167,355.167 413.833,355.833 413.5,356.5C 408.167,360.5 402.833,360.5 397.5,356.5C 396.89,355.609 396.557,354.609 396.5,353.5C 399.262,351.275 402.262,349.275 405.5,347.5C 409.472,348.83 412.472,351.163 414.5,354.5 Z"/></g>
<g><path style="opacity:1" fill="#f7db71" d="M 185.5,349.5 C 196.113,364.533 207.113,379.366 218.5,394C 220.833,394.667 223.167,394.667 225.5,394C 232.333,388.5 239.167,383 246,377.5C 246.333,395.167 246.667,412.833 247,430.5C 248.046,432.09 249.213,433.59 250.5,435C 257.01,437.993 261.51,436.16 264,429.5C 264.333,412.167 264.667,394.833 265,377.5C 271.5,382.667 278,387.833 284.5,393C 288.121,395.09 291.621,394.923 295,392.5C 304.943,378.256 315.11,364.256 325.5,350.5C 327.216,350.629 328.883,350.962 330.5,351.5C 341.548,356.685 352.881,361.352 364.5,365.5C 375.299,370.105 385.966,375.105 396.5,380.5C 397.167,381.5 397.833,382.5 398.5,383.5C 383.984,393.502 370.151,404.502 357,416.5C 355.853,419.618 354.52,422.618 353,425.5C 352.5,435.161 352.334,444.828 352.5,454.5C 346.5,454.5 340.5,454.5 334.5,454.5C 335.596,450.587 335.762,446.587 335,442.5C 334.215,440.714 333.049,439.214 331.5,438C 323.933,436.865 316.266,436.365 308.5,436.5C 300.734,436.365 293.067,436.865 285.5,438C 284.299,438.903 283.465,440.069 283,441.5C 282.772,445.917 282.272,450.25 281.5,454.5C 240.5,454.5 199.5,454.5 158.5,454.5C 158.666,445.161 158.5,435.827 158,426.5C 156.824,420.988 154.324,416.155 150.5,412C 138.545,403.047 126.878,393.713 115.5,384C 114.552,383.517 113.552,383.351 112.5,383.5C 114.237,381.45 116.237,379.617 118.5,378C 128.06,374.101 137.394,369.935 146.5,365.5C 159.886,360.932 172.886,355.598 185.5,349.5 Z"/></g>
<g><path style="opacity:1" fill="#cfe7c5" d="M 3.5,350.5 C 11.9114,356.799 20.0781,363.466 28,370.5C 28.6667,371.833 29.3333,373.167 30,374.5C 30.4995,380.491 30.6662,386.491 30.5,392.5C 23.1667,392.5 15.8333,392.5 8.5,392.5C 4.77807,392.139 1.77807,390.472 -0.5,387.5C -0.5,376.833 -0.5,366.167 -0.5,355.5C 0.593015,353.651 1.92635,351.984 3.5,350.5 Z"/></g>
<g><path style="opacity:1" fill="#f2f8ed" d="M 396.5,353.5 C 396.557,354.609 396.89,355.609 397.5,356.5C 396.901,364.486 396.568,372.486 396.5,380.5C 385.966,375.105 375.299,370.105 364.5,365.5C 367.817,363.863 371.15,362.196 374.5,360.5C 375.462,364.146 377.795,365.313 381.5,364C 386.208,359.988 391.208,356.488 396.5,353.5 Z"/></g>
<g><path style="opacity:1" fill="#868790" d="M 397.5,356.5 C 402.833,360.5 408.167,360.5 413.5,356.5C 414.479,368.143 415.146,379.81 415.5,391.5C 411.629,391.185 407.962,391.518 404.5,392.5C 404.5,392.833 404.5,393.167 404.5,393.5C 403.538,389.58 401.538,386.247 398.5,383.5C 397.833,382.5 397.167,381.5 396.5,380.5C 396.568,372.486 396.901,364.486 397.5,356.5 Z"/></g>
<g><path style="opacity:1" fill="#f4ec79" d="M 112.5,383.5 C 113.552,383.351 114.552,383.517 115.5,384C 126.878,393.713 138.545,403.047 150.5,412C 154.324,416.155 156.824,420.988 158,426.5C 158.5,435.827 158.666,445.161 158.5,454.5C 145.163,454.667 131.829,454.5 118.5,454C 112.753,451.921 108.586,448.088 106,442.5C 105.172,426.328 105.339,410.328 106.5,394.5C 107.174,390.155 109.174,386.488 112.5,383.5 Z"/></g>
<g><path style="opacity:1" fill="#f3ec79" d="M 398.5,383.5 C 401.538,386.247 403.538,389.58 404.5,393.5C 405.302,394.952 405.802,396.618 406,398.5C 406.667,411.833 406.667,425.167 406,438.5C 405.059,446.774 400.559,451.94 392.5,454C 379.171,454.5 365.837,454.667 352.5,454.5C 352.334,444.828 352.5,435.161 353,425.5C 354.52,422.618 355.853,419.618 357,416.5C 370.151,404.502 383.984,393.502 398.5,383.5 Z"/></g>
<g><path style="opacity:1" fill="#bde0bd" d="M 462.5,392.5 C 450.167,392.5 437.833,392.5 425.5,392.5C 426.055,389.213 427.722,386.713 430.5,385C 439.833,384.333 449.167,384.333 458.5,385C 461.397,386.715 462.731,389.215 462.5,392.5 Z"/></g>
<g><path style="opacity:1" fill="#eeec78" d="M 334.5,454.5 C 316.833,454.5 299.167,454.5 281.5,454.5C 282.272,450.25 282.772,445.917 283,441.5C 283.465,440.069 284.299,438.903 285.5,438C 293.067,436.865 300.734,436.365 308.5,436.5C 316.266,436.365 323.933,436.865 331.5,438C 333.049,439.214 334.215,440.714 335,442.5C 335.762,446.587 335.596,450.587 334.5,454.5 Z"/></g>
</svg>
