<?xml version="1.0" encoding="UTF-8"?>
<!DOCTYPE svg PUBLIC "-//W3C//DTD SVG 1.1//EN" "http://www.w3.org/Graphics/SVG/1.1/DTD/svg11.dtd">
<svg xmlns="http://www.w3.org/2000/svg" version="1.1" width="256px" height="256px" style="shape-rendering:geometricPrecision; text-rendering:geometricPrecision; image-rendering:optimizeQuality; fill-rule:evenodd; clip-rule:evenodd" xmlns:xlink="http://www.w3.org/1999/xlink">
<g><path style="opacity:0.926" fill="#72727272" d="M 97.5,23.5 C 141.505,19.7427 173.338,37.4094 193,76.5C 205.211,109.175 201.045,139.508 180.5,167.5C 199.486,186.986 218.653,206.32 238,225.5C 241.833,237.667 237.667,241.833 225.5,238C 206.32,218.653 186.986,199.486 167.5,180.5C 141.399,199.906 112.732,204.739 81.5,195C 39.0296,176.474 19.863,143.974 24,97.5C 32.6803,56.9867 57.1803,32.3201 97.5,23.5 Z M 110.5,39.5 C 148.785,42.2854 172.618,62.2854 182,99.5C 185.075,143.081 165.575,170.581 123.5,182C 86.9497,185.475 60.783,170.642 45,137.5C 33.4852,99.0322 44.6518,69.1988 78.5,48C 88.7303,42.9696 99.397,40.1362 110.5,39.5 Z"/></g>
</svg>
