<?xml version="1.0" encoding="UTF-8"?>
<!DOCTYPE svg PUBLIC "-//W3C//DTD SVG 1.1//EN" "http://www.w3.org/Graphics/SVG/1.1/DTD/svg11.dtd">
<svg xmlns="http://www.w3.org/2000/svg" version="1.1" width="512px" height="512px" style="shape-rendering:geometricPrecision; text-rendering:geometricPrecision; image-rendering:optimizeQuality; fill-rule:evenodd; clip-rule:evenodd" xmlns:xlink="http://www.w3.org/1999/xlink">
<g><path style="opacity:1" fill="#462922" d="M 249.5,-0.5 C 253.5,-0.5 257.5,-0.5 261.5,-0.5C 267.845,2.83978 271.179,8.17311 271.5,15.5C 270.512,20.6405 270.179,25.9738 270.5,31.5C 260.527,30.6345 250.527,30.3012 240.5,30.5C 240.821,25.3054 240.487,20.3054 239.5,15.5C 239.821,8.17311 243.155,2.83978 249.5,-0.5 Z"/></g>
<g><path style="opacity:1" fill="#4a2b26" d="M 218.5,34.5 C 218.607,36.3786 218.107,36.7119 217,35.5C 206.641,38.2864 196.974,42.6197 188,48.5C 187.601,48.2716 187.435,47.9382 187.5,47.5C 184.454,40.9078 182.12,34.0744 180.5,27C 183.466,11.517 192.132,7.18368 206.5,14C 211.013,19.8583 214.346,26.3583 216.5,33.5C 216.957,34.2975 217.624,34.6309 218.5,34.5 Z"/></g>
<g><path style="opacity:1" fill="#4b2b26" d="M 323.5,47.5 C 314.135,42.9877 304.468,39.1544 294.5,36C 295.774,35.0228 295.774,34.1894 294.5,33.5C 296.641,26.3853 299.974,19.8853 304.5,14C 318.868,7.18368 327.534,11.517 330.5,27C 328.88,34.0744 326.546,40.9078 323.5,47.5 Z"/></g>
<g><path style="opacity:0.455" fill="#fa4cae" d="M 239.5,15.5 C 240.487,20.3054 240.821,25.3054 240.5,30.5C 240.158,31.3382 239.492,31.6716 238.5,31.5C 239.449,26.2599 239.782,20.9265 239.5,15.5 Z"/></g>
<g><path style="opacity:1" fill="#a36343" d="M 271.5,15.5 C 271.334,20.5111 271.501,25.5111 272,30.5C 276.622,31.3676 281.122,32.3676 285.5,33.5C 284.527,33.9867 283.527,34.4867 282.5,35C 301.986,41.817 318.153,53.317 331,69.5C 351.031,96.0863 361.864,126.086 363.5,159.5C 358.42,157.23 353.087,155.897 347.5,155.5C 318.301,153.54 298.801,166.54 289,194.5C 288.505,196.473 288.338,198.473 288.5,200.5C 277.5,200.5 266.5,200.5 255.5,200.5C 255.92,190.753 255.42,181.086 254,171.5C 250.53,164.684 245.03,160.684 237.5,159.5C 197.117,159.155 156.784,158.155 116.5,156.5C 117.402,148.422 118.735,140.422 120.5,132.5C 124.155,121.587 128.821,110.92 134.5,100.5C 137.422,94.3143 141.089,88.6476 145.5,83.5C 151.745,76.4312 158.911,69.4312 167,62.5C 167.667,61.8333 167.667,61.1667 167,60.5C 164.546,58.5588 162.713,56.2254 161.5,53.5C 163.814,55.4773 166.147,57.4773 168.5,59.5C 174.693,55.2393 181.026,51.2393 187.5,47.5C 187.435,47.9382 187.601,48.2716 188,48.5C 196.974,42.6197 206.641,38.2864 217,35.5C 218.107,36.7119 218.607,36.3786 218.5,34.5C 225.062,32.8508 231.729,31.8508 238.5,31.5C 239.492,31.6716 240.158,31.3382 240.5,30.5C 250.527,30.3012 260.527,30.6345 270.5,31.5C 270.179,25.9738 270.512,20.6405 271.5,15.5 Z"/></g>
<g><path style="opacity:1" fill="#864b3f" d="M 285.5,33.5 C 288.673,34.3683 291.673,34.3683 294.5,33.5C 295.774,34.1894 295.774,35.0228 294.5,36C 304.468,39.1544 314.135,42.9877 323.5,47.5C 329.974,51.2393 336.307,55.2393 342.5,59.5C 346.52,55.8114 350.52,52.1447 354.5,48.5C 354.938,48.4346 355.272,48.6012 355.5,49C 351.318,53.015 347.318,57.1817 343.5,61.5C 350.35,67.5167 356.684,74.0167 362.5,81C 363.448,81.4828 364.448,81.6495 365.5,81.5C 369.395,88.2787 373.561,94.9454 378,101.5C 379.725,100.536 381.559,99.8693 383.5,99.5C 382.436,101.049 380.436,102.215 377.5,103C 382.698,111.592 386.531,120.759 389,130.5C 389.69,129.262 390.19,129.262 390.5,130.5C 393.051,142.36 394.385,154.36 394.5,166.5C 394.5,177.167 394.5,187.833 394.5,198.5C 390.138,180.788 379.805,167.788 363.5,159.5C 361.864,126.086 351.031,96.0863 331,69.5C 318.153,53.317 301.986,41.817 282.5,35C 283.527,34.4867 284.527,33.9867 285.5,33.5 Z"/></g>
<g><path style="opacity:1" fill="#492b25" d="M 161.5,53.5 C 162.713,56.2254 164.546,58.5588 167,60.5C 167.667,61.1667 167.667,61.8333 167,62.5C 158.911,69.4312 151.745,76.4312 145.5,83.5C 140.524,77.6826 135.691,71.6826 131,65.5C 128.913,52.9711 134.08,45.9711 146.5,44.5C 153.194,44.6801 158.194,47.6801 161.5,53.5 Z"/></g>
<g><path style="opacity:0.999" fill="#4a2926" d="M 365.5,81.5 C 364.448,81.6495 363.448,81.4828 362.5,81C 356.684,74.0167 350.35,67.5167 343.5,61.5C 347.318,57.1817 351.318,53.015 355.5,49C 355.272,48.6012 354.938,48.4346 354.5,48.5C 355.749,46.8639 357.416,45.6972 359.5,45C 375,43.1667 381.833,50 380,65.5C 376.04,71.6266 371.207,76.9599 365.5,81.5 Z"/></g>
<g><path style="opacity:0.999" fill="#4b2c27" d="M 134.5,100.5 C 128.821,110.92 124.155,121.587 120.5,132.5C 120.631,131.624 120.298,130.957 119.5,130.5C 112.424,128.203 105.924,124.87 100,120.5C 93.1837,106.132 97.517,97.4657 113,94.5C 119.953,95.9747 126.62,98.3081 133,101.5C 133.383,100.944 133.883,100.611 134.5,100.5 Z"/></g>
<g><path style="opacity:0.999" fill="#482a24" d="M 390.5,130.5 C 390.19,129.262 389.69,129.262 389,130.5C 386.531,120.759 382.698,111.592 377.5,103C 380.436,102.215 382.436,101.049 383.5,99.5C 390.971,94.0961 398.971,93.2628 407.5,97C 416.423,105.302 416.757,113.969 408.5,123C 402.76,126.189 396.76,128.689 390.5,130.5 Z"/></g>
<g><path style="opacity:1" fill="#5d322b" d="M 347.5,155.5 C 347.062,155.435 346.728,155.601 346.5,156C 355.438,164.079 360.604,174.246 362,186.5C 365.414,207.748 363.414,228.414 356,248.5C 353.604,254.696 349.437,259.029 343.5,261.5C 323.566,261.616 307.733,253.616 296,237.5C 291.989,230.632 289.489,223.299 288.5,215.5C 277.5,215.5 266.5,215.5 255.5,215.5C 255.5,210.5 255.5,205.5 255.5,200.5C 266.5,200.5 277.5,200.5 288.5,200.5C 288.338,198.473 288.505,196.473 289,194.5C 298.801,166.54 318.301,153.54 347.5,155.5 Z"/></g>
<g><path style="opacity:1" fill="#40231d" d="M 347.5,155.5 C 353.087,155.897 358.42,157.23 363.5,159.5C 379.805,167.788 390.138,180.788 394.5,198.5C 394.5,203.833 394.5,209.167 394.5,214.5C 390.89,234.04 380.224,248.373 362.5,257.5C 356.348,259.582 350.015,260.915 343.5,261.5C 349.437,259.029 353.604,254.696 356,248.5C 363.414,228.414 365.414,207.748 362,186.5C 360.604,174.246 355.438,164.079 346.5,156C 346.728,155.601 347.062,155.435 347.5,155.5 Z"/></g>
<g><path style="opacity:1" fill="#a78d82" d="M 116.5,156.5 C 156.784,158.155 197.117,159.155 237.5,159.5C 227.833,159.5 218.167,159.5 208.5,159.5C 177.662,159.831 146.995,159.498 116.5,158.5C 116.5,157.833 116.5,157.167 116.5,156.5 Z"/></g>
<g><path style="opacity:1" fill="#bae1fe" d="M 116.5,158.5 C 146.995,159.498 177.662,159.831 208.5,159.5C 216.379,161.543 221.545,166.543 224,174.5C 224.667,281.5 224.667,388.5 224,495.5C 221.4,502.93 216.567,508.263 209.5,511.5C 154.833,511.5 100.167,511.5 45.5,511.5C 38.6283,508.613 33.795,503.613 31,496.5C 30.5001,480.17 30.3334,463.837 30.5,447.5C 39.1731,447.666 47.8397,447.5 56.5,447C 72.8842,438.796 75.8842,427.129 65.5,412C 61.7373,409.452 57.7373,407.452 53.5,406C 67.1286,402.923 72.9619,394.423 71,380.5C 68.3126,371.814 62.4793,366.647 53.5,365C 69.4194,360.328 74.586,350.162 69,334.5C 66.7785,330.612 63.6118,327.779 59.5,326C 49.4962,324.886 39.4962,324.052 29.5,323.5C 29.3333,274.832 29.5,226.166 30,177.5C 31.376,167.124 37.2093,160.957 47.5,159C 70.4976,158.5 93.4976,158.333 116.5,158.5 Z"/></g>
<g><path style="opacity:1" fill="#7dc8fe" d="M 208.5,159.5 C 218.167,159.5 227.833,159.5 237.5,159.5C 245.03,160.684 250.53,164.684 254,171.5C 255.42,181.086 255.92,190.753 255.5,200.5C 255.5,205.5 255.5,210.5 255.5,215.5C 255.5,237.5 255.5,259.5 255.5,281.5C 255.5,287.833 255.5,294.167 255.5,300.5C 255.5,329.167 255.5,357.833 255.5,386.5C 255.5,396.5 255.5,406.5 255.5,416.5C 255.667,442.835 255.5,469.169 255,495.5C 252.315,503.35 247.148,508.684 239.5,511.5C 229.5,511.5 219.5,511.5 209.5,511.5C 216.567,508.263 221.4,502.93 224,495.5C 224.667,388.5 224.667,281.5 224,174.5C 221.545,166.543 216.379,161.543 208.5,159.5 Z"/></g>
<g><path style="opacity:1" fill="#a46546" d="M 394.5,166.5 C 420.139,168.806 434.139,182.806 436.5,208.5C 435.769,224.14 428.769,235.973 415.5,244C 416.044,244.717 416.711,245.217 417.5,245.5C 417.44,246.043 417.107,246.376 416.5,246.5C 409.626,242.991 402.293,241.324 394.5,241.5C 394.5,232.5 394.5,223.5 394.5,214.5C 394.5,209.167 394.5,203.833 394.5,198.5C 394.5,187.833 394.5,177.167 394.5,166.5 Z"/></g>
<g><path style="opacity:1" fill="#fdfeff" d="M 137.5,190.5 C 151.352,188.808 158.185,194.808 158,208.5C 153.486,220.664 145.319,223.831 133.5,218C 124.411,207.197 125.745,198.031 137.5,190.5 Z"/></g>
<g><path style="opacity:1" fill="#a36242" d="M 255.5,215.5 C 266.5,215.5 277.5,215.5 288.5,215.5C 289.489,223.299 291.989,230.632 296,237.5C 307.733,253.616 323.566,261.616 343.5,261.5C 350.015,260.915 356.348,259.582 362.5,257.5C 361.267,292.682 349.434,324.015 327,351.5C 312.957,366.928 296.123,377.928 276.5,384.5C 269.564,385.627 262.564,386.294 255.5,386.5C 255.5,357.833 255.5,329.167 255.5,300.5C 267.601,300.959 279.601,300.459 291.5,299C 294.167,295 294.167,291 291.5,287C 285.621,285.59 279.621,285.09 273.5,285.5C 273.687,277.853 270.02,274.686 262.5,276C 260.004,277.666 257.671,279.5 255.5,281.5C 255.5,259.5 255.5,237.5 255.5,215.5 Z"/></g>
<g><path style="opacity:1" fill="#874d40" d="M 394.5,214.5 C 394.5,223.5 394.5,232.5 394.5,241.5C 394.218,246.927 394.551,252.26 395.5,257.5C 392.449,286.661 381.782,312.661 363.5,335.5C 359.702,338.796 356.036,342.296 352.5,346C 353.252,346.671 353.586,347.504 353.5,348.5C 352.883,348.389 352.383,348.056 352,347.5C 330.922,367.955 305.755,380.288 276.5,384.5C 296.123,377.928 312.957,366.928 327,351.5C 349.434,324.015 361.267,292.682 362.5,257.5C 380.224,248.373 390.89,234.04 394.5,214.5 Z"/></g>
<g><path style="opacity:0.999" fill="#ff5636" d="M 394.5,241.5 C 402.293,241.324 409.626,242.991 416.5,246.5C 417.107,246.376 417.44,246.043 417.5,245.5C 439.464,254.983 452.297,271.65 456,295.5C 457.335,332.826 439.835,355.659 403.5,364C 384.272,366.532 367.605,361.365 353.5,348.5C 353.586,347.504 353.252,346.671 352.5,346C 356.036,342.296 359.702,338.796 363.5,335.5C 383.321,352.177 403.654,352.677 424.5,337C 440.755,320.462 443.922,301.628 434,280.5C 425.144,266.316 412.31,258.65 395.5,257.5C 394.551,252.26 394.218,246.927 394.5,241.5 Z"/></g>
<g><path style="opacity:1" fill="#40231d" d="M 255.5,300.5 C 255.5,294.167 255.5,287.833 255.5,281.5C 257.671,279.5 260.004,277.666 262.5,276C 270.02,274.686 273.687,277.853 273.5,285.5C 279.621,285.09 285.621,285.59 291.5,287C 294.167,291 294.167,295 291.5,299C 279.601,300.459 267.601,300.959 255.5,300.5 Z"/></g>
<g><path style="opacity:1" fill="#a46445" d="M 29.5,323.5 C 39.4962,324.052 49.4962,324.886 59.5,326C 63.6118,327.779 66.7785,330.612 69,334.5C 74.586,350.162 69.4194,360.328 53.5,365C 62.4793,366.647 68.3126,371.814 71,380.5C 72.9619,394.423 67.1286,402.923 53.5,406C 57.7373,407.452 61.7373,409.452 65.5,412C 75.8842,427.129 72.8842,438.796 56.5,447C 47.8397,447.5 39.1731,447.666 30.5,447.5C 28.4727,447.662 26.4727,447.495 24.5,447C 20.0658,445.04 16.0658,442.54 12.5,439.5C 5.99481,425.015 9.66147,414.015 23.5,406.5C 9.475,398.923 5.975,387.923 13,373.5C 15.9889,369.509 19.8222,366.676 24.5,365C 12.2617,360.365 7.42833,351.532 10,338.5C 13.4091,329.539 19.9091,324.539 29.5,323.5 Z"/></g>
<g><path style="opacity:1" fill="#fff0d1" d="M 255.5,416.5 C 291.5,416.5 327.5,416.5 363.5,416.5C 366.625,417.479 369.958,417.813 373.5,417.5C 373.182,448.877 373.515,480.21 374.5,511.5C 329.5,511.5 284.5,511.5 239.5,511.5C 247.148,508.684 252.315,503.35 255,495.5C 255.5,469.169 255.667,442.835 255.5,416.5 Z"/></g>
<g><path style="opacity:1" fill="#ffd064" d="M 363.5,416.5 C 373.833,416.5 384.167,416.5 394.5,416.5C 397.625,417.479 400.958,417.813 404.5,417.5C 404.5,448.833 404.5,480.167 404.5,511.5C 394.5,511.5 384.5,511.5 374.5,511.5C 373.515,480.21 373.182,448.877 373.5,417.5C 369.958,417.813 366.625,417.479 363.5,416.5 Z"/></g>
<g><path style="opacity:1" fill="#fe4d28" d="M 394.5,416.5 C 405.5,416.5 416.5,416.5 427.5,416.5C 455.711,422.877 473.211,440.211 480,468.5C 480.5,482.829 480.667,497.163 480.5,511.5C 455.167,511.5 429.833,511.5 404.5,511.5C 404.5,480.167 404.5,448.833 404.5,417.5C 400.958,417.813 397.625,417.479 394.5,416.5 Z"/></g>
<g><path style="opacity:1" fill="#cd3e1f" d="M 427.5,416.5 C 438.838,416.333 450.172,416.5 461.5,417C 481.72,421.589 496.387,433.089 505.5,451.5C 505.062,451.435 504.728,451.601 504.5,452C 506.199,456.175 507.865,459.675 509.5,462.5C 510.167,464.167 510.833,465.833 511.5,467.5C 511.5,482.167 511.5,496.833 511.5,511.5C 501.167,511.5 490.833,511.5 480.5,511.5C 480.667,497.163 480.5,482.829 480,468.5C 473.211,440.211 455.711,422.877 427.5,416.5 Z"/></g>
<g><path style="opacity:1" fill="#fe8f48" d="M 12.5,439.5 C 16.0658,442.54 20.0658,445.04 24.5,447C 26.4727,447.495 28.4727,447.662 30.5,447.5C 30.3334,463.837 30.5001,480.17 31,496.5C 33.795,503.613 38.6283,508.613 45.5,511.5C 30.1667,511.5 14.8333,511.5 -0.5,511.5C -0.5,496.833 -0.5,482.167 -0.5,467.5C 1.64657,457.204 5.9799,447.871 12.5,439.5 Z"/></g>
<g><path style="opacity:0.729" fill="#a49768" d="M 505.5,451.5 C 507.601,454.797 508.935,458.463 509.5,462.5C 507.865,459.675 506.199,456.175 504.5,452C 504.728,451.601 505.062,451.435 505.5,451.5 Z"/></g>
</svg>
